<mxfile host="app.diagrams.net" modified="2023-12-20T19:14:08.716Z" agent="Mozilla/5.0 (Windows NT 10.0; Win64; x64) AppleWebKit/537.36 (KHTML, like Gecko) Chrome/120.0.0.0 Safari/537.36" etag="9HBVpQgKQDNCWiJMFfUU" version="22.1.11" type="device">
  <diagram name="Page-1" id="2cc2dc42-3aac-f2a9-1cec-7a8b7cbee084">
    <mxGraphModel dx="2607" dy="1436" grid="1" gridSize="10" guides="1" tooltips="1" connect="1" arrows="1" fold="1" page="1" pageScale="1" pageWidth="1100" pageHeight="850" background="none" math="0" shadow="0">
      <root>
        <mxCell id="0" />
        <mxCell id="1" parent="0" />
        <mxCell id="7026571954dc6520-1" value="" style="strokeWidth=1;shadow=0;dashed=0;align=center;html=1;shape=mxgraph.mockup.containers.browserWindow;rSize=0;strokeColor=#FFFFFF;mainText=,;recursiveResize=0;rounded=0;labelBackgroundColor=none;fontFamily=Verdana;fontSize=12;fontColor=default;fillStyle=solid;fillColor=#000000;" parent="1" vertex="1">
          <mxGeometry x="25" y="120" width="1055" height="2990" as="geometry" />
        </mxCell>
        <mxCell id="7026571954dc6520-2" value="Page 1" style="strokeWidth=1;shadow=0;dashed=0;align=center;html=1;shape=mxgraph.mockup.containers.anchor;fontSize=17;fontColor=#666666;align=left;" parent="7026571954dc6520-1" vertex="1">
          <mxGeometry x="60" y="12" width="110" height="26" as="geometry" />
        </mxCell>
        <mxCell id="7026571954dc6520-3" value="https://www.default.com" style="strokeWidth=1;shadow=0;dashed=0;align=center;html=1;shape=mxgraph.mockup.containers.anchor;rSize=0;fontSize=17;fontColor=#666666;align=left;" parent="7026571954dc6520-1" vertex="1">
          <mxGeometry x="130" y="60" width="250" height="26" as="geometry" />
        </mxCell>
        <mxCell id="Q1Ss78tnG0cNNUvzTSzG-1" value="" style="rounded=0;whiteSpace=wrap;html=1;gradientColor=none;fillColor=#66B2FF;fillStyle=cross-hatch;fontColor=#FFFFFF;" vertex="1" parent="7026571954dc6520-1">
          <mxGeometry y="170" width="1050" height="350" as="geometry" />
        </mxCell>
        <mxCell id="Q1Ss78tnG0cNNUvzTSzG-3" value="" style="sketch=0;outlineConnect=0;fontColor=#FFFFFF;gradientColor=none;fillColor=#232F3D;strokeColor=none;dashed=0;verticalLabelPosition=bottom;verticalAlign=top;align=center;html=1;fontSize=12;fontStyle=0;aspect=fixed;pointerEvents=1;shape=mxgraph.aws4.user;" vertex="1" parent="7026571954dc6520-1">
          <mxGeometry x="710" y="231" width="228" height="228" as="geometry" />
        </mxCell>
        <mxCell id="Q1Ss78tnG0cNNUvzTSzG-2" value="Hi, I&#39;m Kristopher Scheuer" style="text;html=1;strokeColor=none;fillColor=none;align=center;verticalAlign=middle;whiteSpace=wrap;rounded=0;fontSize=37;fontColor=#FFFFFF;" vertex="1" parent="7026571954dc6520-1">
          <mxGeometry x="90" y="220" width="490" height="70" as="geometry" />
        </mxCell>
        <mxCell id="Q1Ss78tnG0cNNUvzTSzG-5" value="&lt;span style=&quot;font-size: 23px;&quot;&gt;An experienced&amp;nbsp;Systems Administrator with over 8 years of experience&amp;nbsp;working in enterprise environment&#39;s&lt;/span&gt;" style="text;html=1;strokeColor=none;fillColor=none;align=center;verticalAlign=middle;whiteSpace=wrap;rounded=0;fontSize=23;fontColor=#FFFFFF;" vertex="1" parent="7026571954dc6520-1">
          <mxGeometry x="40" y="308" width="600" height="160" as="geometry" />
        </mxCell>
        <mxCell id="Q1Ss78tnG0cNNUvzTSzG-6" value="" style="rounded=0;whiteSpace=wrap;html=1;fillColor=#66B2FF;fillStyle=cross-hatch;fontColor=#FFFFFF;" vertex="1" parent="7026571954dc6520-1">
          <mxGeometry y="110" width="1050" height="60" as="geometry" />
        </mxCell>
        <mxCell id="Q1Ss78tnG0cNNUvzTSzG-7" value="&lt;span style=&quot;font-size: 21px;&quot;&gt;About&amp;nbsp; &amp;nbsp; Experience&amp;nbsp; &amp;nbsp; Certifications&amp;nbsp; &amp;nbsp; Projects&amp;nbsp; &amp;nbsp; Contact&amp;nbsp;&amp;nbsp;&lt;/span&gt;" style="text;html=1;strokeColor=none;fillColor=none;align=center;verticalAlign=middle;whiteSpace=wrap;rounded=0;fontColor=#FFFFFF;" vertex="1" parent="7026571954dc6520-1">
          <mxGeometry x="90" y="125" width="870" height="30" as="geometry" />
        </mxCell>
        <mxCell id="Q1Ss78tnG0cNNUvzTSzG-8" value="" style="rounded=0;whiteSpace=wrap;html=1;fillColor=#000000;" vertex="1" parent="7026571954dc6520-1">
          <mxGeometry y="520" width="1050" height="370" as="geometry" />
        </mxCell>
        <mxCell id="Q1Ss78tnG0cNNUvzTSzG-10" value="Systems Engineer" style="text;html=1;strokeColor=none;fillColor=none;align=center;verticalAlign=middle;whiteSpace=wrap;rounded=0;fontSize=32;fontColor=#FFFFFF;fontStyle=1" vertex="1" parent="7026571954dc6520-1">
          <mxGeometry x="370" y="550" width="280" height="30" as="geometry" />
        </mxCell>
        <mxCell id="Q1Ss78tnG0cNNUvzTSzG-11" value="U.S. Marine Corps" style="text;html=1;strokeColor=none;fillColor=none;align=center;verticalAlign=middle;whiteSpace=wrap;rounded=0;fontSize=17;fontColor=#FFFFFF;" vertex="1" parent="7026571954dc6520-1">
          <mxGeometry x="391.25" y="580" width="237.5" height="30" as="geometry" />
        </mxCell>
        <mxCell id="Q1Ss78tnG0cNNUvzTSzG-12" value="Designed and Implemented Private Clouds" style="text;html=1;strokeColor=none;fillColor=none;align=center;verticalAlign=middle;whiteSpace=wrap;rounded=0;fontSize=15;fontColor=#FFFFFF;" vertex="1" parent="7026571954dc6520-1">
          <mxGeometry x="30" y="630" width="480" height="40" as="geometry" />
        </mxCell>
        <mxCell id="Q1Ss78tnG0cNNUvzTSzG-14" value="Performed Vulnerability Scans" style="text;html=1;strokeColor=none;fillColor=none;align=center;verticalAlign=middle;whiteSpace=wrap;rounded=0;fontSize=15;fontColor=#FFFFFF;" vertex="1" parent="7026571954dc6520-1">
          <mxGeometry x="-10" y="670" width="480" height="40" as="geometry" />
        </mxCell>
        <mxCell id="Q1Ss78tnG0cNNUvzTSzG-15" value="Conducted Patch Management" style="text;html=1;strokeColor=none;fillColor=none;align=center;verticalAlign=middle;whiteSpace=wrap;rounded=0;fontSize=15;fontColor=#FFFFFF;" vertex="1" parent="7026571954dc6520-1">
          <mxGeometry x="530" y="630" width="480" height="40" as="geometry" />
        </mxCell>
        <mxCell id="Q1Ss78tnG0cNNUvzTSzG-16" value="Implemented DISA STIGs to Harden Systems" style="text;html=1;strokeColor=none;fillColor=none;align=center;verticalAlign=middle;whiteSpace=wrap;rounded=0;fontSize=15;fontColor=#FFFFFF;" vertex="1" parent="7026571954dc6520-1">
          <mxGeometry x="540" y="670" width="480" height="40" as="geometry" />
        </mxCell>
        <mxCell id="Q1Ss78tnG0cNNUvzTSzG-17" value="Maintained an Microsoft Active Directory Environment" style="text;html=1;strokeColor=none;fillColor=none;align=center;verticalAlign=middle;whiteSpace=wrap;rounded=0;fontSize=15;fontColor=#FFFFFF;" vertex="1" parent="7026571954dc6520-1">
          <mxGeometry x="20" y="710" width="480" height="40" as="geometry" />
        </mxCell>
        <mxCell id="Q1Ss78tnG0cNNUvzTSzG-18" value="Created Scripts to Automate Tasks" style="text;html=1;strokeColor=none;fillColor=none;align=center;verticalAlign=middle;whiteSpace=wrap;rounded=0;fontSize=15;fontColor=#FFFFFF;" vertex="1" parent="7026571954dc6520-1">
          <mxGeometry x="530" y="720" width="480" height="40" as="geometry" />
        </mxCell>
        <mxCell id="Q1Ss78tnG0cNNUvzTSzG-19" value="Managed a team of System and Network Administrators&amp;nbsp;" style="text;html=1;strokeColor=none;fillColor=none;align=center;verticalAlign=middle;whiteSpace=wrap;rounded=0;fontSize=15;fontColor=#FFFFFF;" vertex="1" parent="7026571954dc6520-1">
          <mxGeometry x="30" y="760" width="480" height="40" as="geometry" />
        </mxCell>
        <mxCell id="Q1Ss78tnG0cNNUvzTSzG-20" value="Conducted Incident Response" style="text;html=1;strokeColor=none;fillColor=none;align=center;verticalAlign=middle;whiteSpace=wrap;rounded=0;fontSize=15;fontColor=#FFFFFF;" vertex="1" parent="7026571954dc6520-1">
          <mxGeometry x="520" y="760" width="480" height="40" as="geometry" />
        </mxCell>
        <mxCell id="Q1Ss78tnG0cNNUvzTSzG-21" value="Performed Troubleshooting on Servers and Networking Devices" style="text;html=1;strokeColor=none;fillColor=none;align=center;verticalAlign=middle;whiteSpace=wrap;rounded=0;fontSize=15;fontColor=#FFFFFF;" vertex="1" parent="7026571954dc6520-1">
          <mxGeometry x="20" y="810" width="480" height="40" as="geometry" />
        </mxCell>
        <mxCell id="Q1Ss78tnG0cNNUvzTSzG-22" value="Compiled data and brief leadership" style="text;html=1;strokeColor=none;fillColor=none;align=center;verticalAlign=middle;whiteSpace=wrap;rounded=0;fontSize=15;fontColor=#FFFFFF;" vertex="1" parent="7026571954dc6520-1">
          <mxGeometry x="520" y="810" width="480" height="40" as="geometry" />
        </mxCell>
        <mxCell id="Q1Ss78tnG0cNNUvzTSzG-23" value="" style="rounded=0;whiteSpace=wrap;html=1;fillColor=#000000;" vertex="1" parent="7026571954dc6520-1">
          <mxGeometry y="890" width="1050" height="300" as="geometry" />
        </mxCell>
        <mxCell id="Q1Ss78tnG0cNNUvzTSzG-24" value="Systems Administrator" style="text;html=1;strokeColor=none;fillColor=none;align=center;verticalAlign=middle;whiteSpace=wrap;rounded=0;fontSize=32;fontColor=#FFFFFF;fontStyle=1" vertex="1" parent="7026571954dc6520-1">
          <mxGeometry x="340" y="920" width="370" height="30" as="geometry" />
        </mxCell>
        <mxCell id="Q1Ss78tnG0cNNUvzTSzG-25" value="U.S. Marine Corps" style="text;html=1;strokeColor=none;fillColor=none;align=center;verticalAlign=middle;whiteSpace=wrap;rounded=0;fontSize=17;fontColor=#FFFFFF;" vertex="1" parent="7026571954dc6520-1">
          <mxGeometry x="391.25" y="950" width="237.5" height="30" as="geometry" />
        </mxCell>
        <mxCell id="Q1Ss78tnG0cNNUvzTSzG-26" value="Deployed Software using Microsoft ECM / SCCM" style="text;html=1;strokeColor=none;fillColor=none;align=center;verticalAlign=middle;whiteSpace=wrap;rounded=0;fontSize=15;fontColor=#FFFFFF;" vertex="1" parent="7026571954dc6520-1">
          <mxGeometry x="30" y="1000" width="480" height="40" as="geometry" />
        </mxCell>
        <mxCell id="Q1Ss78tnG0cNNUvzTSzG-27" value="Managed Microsoft Exchange" style="text;html=1;strokeColor=none;fillColor=none;align=center;verticalAlign=middle;whiteSpace=wrap;rounded=0;fontSize=15;fontColor=#FFFFFF;" vertex="1" parent="7026571954dc6520-1">
          <mxGeometry x="-10" y="1040" width="480" height="40" as="geometry" />
        </mxCell>
        <mxCell id="Q1Ss78tnG0cNNUvzTSzG-28" value="Created Standard Windows Images" style="text;html=1;strokeColor=none;fillColor=none;align=center;verticalAlign=middle;whiteSpace=wrap;rounded=0;fontSize=15;fontColor=#FFFFFF;" vertex="1" parent="7026571954dc6520-1">
          <mxGeometry x="530" y="1000" width="480" height="40" as="geometry" />
        </mxCell>
        <mxCell id="Q1Ss78tnG0cNNUvzTSzG-29" value="Performed Role BAC Audits" style="text;html=1;strokeColor=none;fillColor=none;align=center;verticalAlign=middle;whiteSpace=wrap;rounded=0;fontSize=15;fontColor=#FFFFFF;" vertex="1" parent="7026571954dc6520-1">
          <mxGeometry x="540" y="1040" width="480" height="40" as="geometry" />
        </mxCell>
        <mxCell id="Q1Ss78tnG0cNNUvzTSzG-30" value="Implemented and Managed DLP, HIPS and Antivirus" style="text;html=1;strokeColor=none;fillColor=none;align=center;verticalAlign=middle;whiteSpace=wrap;rounded=0;fontSize=15;fontColor=#FFFFFF;" vertex="1" parent="7026571954dc6520-1">
          <mxGeometry x="20" y="1080" width="480" height="40" as="geometry" />
        </mxCell>
        <mxCell id="Q1Ss78tnG0cNNUvzTSzG-31" value="Conducted Vulnerability Scans" style="text;html=1;strokeColor=none;fillColor=none;align=center;verticalAlign=middle;whiteSpace=wrap;rounded=0;fontSize=15;fontColor=#FFFFFF;" vertex="1" parent="7026571954dc6520-1">
          <mxGeometry x="530" y="1090" width="480" height="40" as="geometry" />
        </mxCell>
        <mxCell id="Q1Ss78tnG0cNNUvzTSzG-32" value="Network Configurations both Routing and Switching" style="text;html=1;strokeColor=none;fillColor=none;align=center;verticalAlign=middle;whiteSpace=wrap;rounded=0;fontSize=15;" vertex="1" parent="7026571954dc6520-1">
          <mxGeometry x="30" y="1130" width="480" height="40" as="geometry" />
        </mxCell>
        <mxCell id="Q1Ss78tnG0cNNUvzTSzG-33" value="Created Custom Dashboards&amp;nbsp;" style="text;html=1;strokeColor=none;fillColor=none;align=center;verticalAlign=middle;whiteSpace=wrap;rounded=0;fontSize=15;" vertex="1" parent="7026571954dc6520-1">
          <mxGeometry x="520" y="1130" width="480" height="40" as="geometry" />
        </mxCell>
        <mxCell id="Q1Ss78tnG0cNNUvzTSzG-69" value="" style="rounded=0;whiteSpace=wrap;html=1;fillColor=#000000;" vertex="1" parent="7026571954dc6520-1">
          <mxGeometry y="1190" width="1050" height="600" as="geometry" />
        </mxCell>
        <mxCell id="Q1Ss78tnG0cNNUvzTSzG-70" value="Certifications" style="text;html=1;strokeColor=none;fillColor=none;align=center;verticalAlign=middle;whiteSpace=wrap;rounded=0;fontSize=32;fontColor=#FFFFFF;fontStyle=1" vertex="1" parent="7026571954dc6520-1">
          <mxGeometry x="360" y="1230" width="330" height="30" as="geometry" />
        </mxCell>
        <mxCell id="Q1Ss78tnG0cNNUvzTSzG-80" value="" style="sketch=0;outlineConnect=0;fontColor=#FFFFFF;gradientColor=none;fillColor=#ED7100;strokeColor=none;dashed=0;verticalLabelPosition=bottom;verticalAlign=top;align=center;html=1;fontSize=12;fontStyle=0;aspect=fixed;pointerEvents=1;shape=mxgraph.aws4.container_registry_image;" vertex="1" parent="7026571954dc6520-1">
          <mxGeometry x="205" y="1340" width="100" height="100" as="geometry" />
        </mxCell>
        <mxCell id="Q1Ss78tnG0cNNUvzTSzG-81" value="CCNA" style="text;html=1;strokeColor=none;fillColor=none;align=center;verticalAlign=middle;whiteSpace=wrap;rounded=0;fontSize=16;fontColor=#FFFFFF;" vertex="1" parent="7026571954dc6520-1">
          <mxGeometry x="230" y="1300" width="60" height="30" as="geometry" />
        </mxCell>
        <mxCell id="Q1Ss78tnG0cNNUvzTSzG-83" value="" style="sketch=0;outlineConnect=0;fontColor=#FFFFFF;gradientColor=none;fillColor=#ED7100;strokeColor=none;dashed=0;verticalLabelPosition=bottom;verticalAlign=top;align=center;html=1;fontSize=12;fontStyle=0;aspect=fixed;pointerEvents=1;shape=mxgraph.aws4.container_registry_image;" vertex="1" parent="7026571954dc6520-1">
          <mxGeometry x="391.25" y="1340" width="100" height="100" as="geometry" />
        </mxCell>
        <mxCell id="Q1Ss78tnG0cNNUvzTSzG-84" value="Security+" style="text;html=1;strokeColor=none;fillColor=none;align=center;verticalAlign=middle;whiteSpace=wrap;rounded=0;fontSize=16;fontColor=#FFFFFF;" vertex="1" parent="7026571954dc6520-1">
          <mxGeometry x="401.88" y="1300" width="78.75" height="30" as="geometry" />
        </mxCell>
        <mxCell id="Q1Ss78tnG0cNNUvzTSzG-85" value="" style="sketch=0;outlineConnect=0;fontColor=#FFFFFF;gradientColor=none;fillColor=#ED7100;strokeColor=none;dashed=0;verticalLabelPosition=bottom;verticalAlign=top;align=center;html=1;fontSize=12;fontStyle=0;aspect=fixed;pointerEvents=1;shape=mxgraph.aws4.container_registry_image;" vertex="1" parent="7026571954dc6520-1">
          <mxGeometry x="570" y="1340" width="100" height="100" as="geometry" />
        </mxCell>
        <mxCell id="Q1Ss78tnG0cNNUvzTSzG-86" value="VCTA-DCV" style="text;html=1;strokeColor=none;fillColor=none;align=center;verticalAlign=middle;whiteSpace=wrap;rounded=0;fontSize=16;fontColor=#FFFFFF;" vertex="1" parent="7026571954dc6520-1">
          <mxGeometry x="580" y="1300" width="90" height="30" as="geometry" />
        </mxCell>
        <mxCell id="Q1Ss78tnG0cNNUvzTSzG-87" value="" style="sketch=0;outlineConnect=0;fontColor=#FFFFFF;gradientColor=none;fillColor=#ED7100;strokeColor=none;dashed=0;verticalLabelPosition=bottom;verticalAlign=top;align=center;html=1;fontSize=12;fontStyle=0;aspect=fixed;pointerEvents=1;shape=mxgraph.aws4.container_registry_image;" vertex="1" parent="7026571954dc6520-1">
          <mxGeometry x="740" y="1340" width="100" height="100" as="geometry" />
        </mxCell>
        <mxCell id="Q1Ss78tnG0cNNUvzTSzG-88" value="LPIC- Essentials" style="text;html=1;strokeColor=none;fillColor=none;align=center;verticalAlign=middle;whiteSpace=wrap;rounded=0;fontSize=16;fontColor=#FFFFFF;" vertex="1" parent="7026571954dc6520-1">
          <mxGeometry x="725" y="1300" width="130" height="30" as="geometry" />
        </mxCell>
        <mxCell id="Q1Ss78tnG0cNNUvzTSzG-90" value="Certificates" style="text;html=1;strokeColor=none;fillColor=none;align=center;verticalAlign=middle;whiteSpace=wrap;rounded=0;fontSize=32;fontColor=#FFFFFF;fontStyle=5" vertex="1" parent="7026571954dc6520-1">
          <mxGeometry x="360" y="1510" width="330" height="30" as="geometry" />
        </mxCell>
        <mxCell id="Q1Ss78tnG0cNNUvzTSzG-91" value="Python For Everybody" style="text;html=1;strokeColor=none;fillColor=none;align=center;verticalAlign=middle;whiteSpace=wrap;rounded=0;fontSize=15;fontColor=#FFFFFF;" vertex="1" parent="7026571954dc6520-1">
          <mxGeometry x="35" y="1560" width="480" height="40" as="geometry" />
        </mxCell>
        <mxCell id="Q1Ss78tnG0cNNUvzTSzG-92" value="Configuration Management and the Cloud" style="text;html=1;strokeColor=none;fillColor=none;align=center;verticalAlign=middle;whiteSpace=wrap;rounded=0;fontSize=15;fontColor=#FFFFFF;" vertex="1" parent="7026571954dc6520-1">
          <mxGeometry x="-5" y="1600" width="480" height="40" as="geometry" />
        </mxCell>
        <mxCell id="Q1Ss78tnG0cNNUvzTSzG-93" value="Google IT Automation with Python" style="text;html=1;strokeColor=none;fillColor=none;align=center;verticalAlign=middle;whiteSpace=wrap;rounded=0;fontSize=15;fontColor=#FFFFFF;" vertex="1" parent="7026571954dc6520-1">
          <mxGeometry x="535" y="1560" width="480" height="40" as="geometry" />
        </mxCell>
        <mxCell id="Q1Ss78tnG0cNNUvzTSzG-94" value="Using Databases with Python" style="text;html=1;strokeColor=none;fillColor=none;align=center;verticalAlign=middle;whiteSpace=wrap;rounded=0;fontSize=15;fontColor=#FFFFFF;" vertex="1" parent="7026571954dc6520-1">
          <mxGeometry x="545" y="1600" width="480" height="40" as="geometry" />
        </mxCell>
        <mxCell id="Q1Ss78tnG0cNNUvzTSzG-95" value="Troubleshooting and Debugging Techniques" style="text;html=1;strokeColor=none;fillColor=none;align=center;verticalAlign=middle;whiteSpace=wrap;rounded=0;fontSize=15;fontColor=#FFFFFF;" vertex="1" parent="7026571954dc6520-1">
          <mxGeometry x="25" y="1640" width="480" height="40" as="geometry" />
        </mxCell>
        <mxCell id="Q1Ss78tnG0cNNUvzTSzG-96" value="Responsive Web Design" style="text;html=1;strokeColor=none;fillColor=none;align=center;verticalAlign=middle;whiteSpace=wrap;rounded=0;fontSize=15;fontColor=#FFFFFF;" vertex="1" parent="7026571954dc6520-1">
          <mxGeometry x="535" y="1650" width="480" height="40" as="geometry" />
        </mxCell>
        <mxCell id="Q1Ss78tnG0cNNUvzTSzG-212" value="" style="rounded=0;whiteSpace=wrap;html=1;strokeColor=#000000;fillColor=#000000;fontColor=#FFFFFF;" vertex="1" parent="7026571954dc6520-1">
          <mxGeometry y="1790" width="1050" height="600" as="geometry" />
        </mxCell>
        <mxCell id="Q1Ss78tnG0cNNUvzTSzG-97" value="Python for Data Science, AI, &amp;amp; Development from IBM" style="text;html=1;strokeColor=none;fillColor=none;align=center;verticalAlign=middle;whiteSpace=wrap;rounded=0;fontSize=15;fontColor=#FFFFFF;" vertex="1" parent="7026571954dc6520-1">
          <mxGeometry x="35" y="1690" width="480" height="40" as="geometry" />
        </mxCell>
        <mxCell id="Q1Ss78tnG0cNNUvzTSzG-151" value="Personal Projects" style="text;html=1;strokeColor=none;fillColor=none;align=center;verticalAlign=middle;whiteSpace=wrap;rounded=0;fontSize=35;fontColor=#FFFFFF;fontStyle=5" vertex="1" parent="7026571954dc6520-1">
          <mxGeometry x="350" y="1850" width="330" height="30" as="geometry" />
        </mxCell>
        <mxCell id="Q1Ss78tnG0cNNUvzTSzG-152" value="&lt;h1&gt;Password Manager&lt;/h1&gt;&lt;div&gt;GitHub Repository&lt;/div&gt;&lt;p&gt;I created a password manager using Python that securely encrypts and stores user passwords to further my knowledge of how to implement encryption. I Also learned how to use tkinter to design and create a GUI during this project.&lt;/p&gt;" style="text;html=1;strokeColor=none;fillColor=none;spacing=5;spacingTop=-20;whiteSpace=wrap;overflow=hidden;rounded=0;fontColor=#FFFFFF;" vertex="1" parent="7026571954dc6520-1">
          <mxGeometry x="160" y="1930" width="285" height="190" as="geometry" />
        </mxCell>
        <mxCell id="Q1Ss78tnG0cNNUvzTSzG-153" value="&lt;h1&gt;Curling Game&lt;/h1&gt;&lt;div&gt;&lt;div style=&quot;border-color: var(--border-color);&quot;&gt;GitHub Repository&lt;/div&gt;&lt;/div&gt;&lt;div&gt;&lt;br&gt;&lt;/div&gt;&lt;p&gt;I created a game after the winter sport of curling to further my knowledge of object oriented programing as well as to further my GUI design knowledge using libraries like PyGame.&lt;/p&gt;" style="text;html=1;strokeColor=none;fillColor=none;spacing=5;spacingTop=-20;whiteSpace=wrap;overflow=hidden;rounded=0;fontColor=#FFFFFF;" vertex="1" parent="7026571954dc6520-1">
          <mxGeometry x="570" y="1930" width="285" height="190" as="geometry" />
        </mxCell>
        <mxCell id="Q1Ss78tnG0cNNUvzTSzG-154" value="&lt;h1&gt;Media Organizer&amp;nbsp;&lt;/h1&gt;&lt;div&gt;&lt;div style=&quot;border-color: var(--border-color);&quot;&gt;GitHub Repository&lt;/div&gt;&lt;/div&gt;&lt;div&gt;&lt;br&gt;&lt;/div&gt;&lt;p&gt;I created a script that went through a computers file system and organized all the pictures and videos into a clean directory structure. This was created to help keep the family computer organized and allow for the ability to quickly find photos or videos.&amp;nbsp;&lt;/p&gt;" style="text;html=1;strokeColor=none;fillColor=none;spacing=5;spacingTop=-20;whiteSpace=wrap;overflow=hidden;rounded=0;fontColor=#FFFFFF;" vertex="1" parent="7026571954dc6520-1">
          <mxGeometry x="160" y="2110" width="285" height="190" as="geometry" />
        </mxCell>
        <mxCell id="Q1Ss78tnG0cNNUvzTSzG-155" value="&lt;h1&gt;Shell Backup Script&lt;/h1&gt;&lt;div&gt;&lt;div style=&quot;border-color: var(--border-color);&quot;&gt;GitHub Repository&lt;/div&gt;&lt;/div&gt;&lt;div&gt;&lt;br&gt;&lt;/div&gt;&lt;p&gt;I created a script in BASH in order to simplify the process of backing up everything in a directory as well as restoring from the directory. I created this script to further my knowledge of how to script in BASH and better learn the syntax.&lt;/p&gt;" style="text;html=1;strokeColor=none;fillColor=none;spacing=5;spacingTop=-20;whiteSpace=wrap;overflow=hidden;rounded=0;fontColor=#FFFFFF;" vertex="1" parent="7026571954dc6520-1">
          <mxGeometry x="570" y="2120" width="285" height="190" as="geometry" />
        </mxCell>
        <mxCell id="Q1Ss78tnG0cNNUvzTSzG-213" value="" style="rounded=0;whiteSpace=wrap;html=1;fillColor=#000000;fontColor=#FFFFFF;" vertex="1" parent="7026571954dc6520-1">
          <mxGeometry y="2390" width="1050" height="600" as="geometry" />
        </mxCell>
        <mxCell id="Q1Ss78tnG0cNNUvzTSzG-330" value="Contact Me&amp;nbsp;" style="text;html=1;strokeColor=none;fillColor=none;align=center;verticalAlign=middle;whiteSpace=wrap;rounded=0;fontSize=35;fontColor=#FFFFFF;fontStyle=5" vertex="1" parent="7026571954dc6520-1">
          <mxGeometry x="390" y="2490" width="280" height="30" as="geometry" />
        </mxCell>
        <mxCell id="Q1Ss78tnG0cNNUvzTSzG-331" value="email: KDScheuer97@gmail.com" style="text;html=1;strokeColor=none;fillColor=none;align=center;verticalAlign=middle;whiteSpace=wrap;rounded=0;fontSize=23;fontColor=#FFFFFF;" vertex="1" parent="7026571954dc6520-1">
          <mxGeometry x="355" y="2580" width="350" height="30" as="geometry" />
        </mxCell>
        <mxCell id="Q1Ss78tnG0cNNUvzTSzG-332" value="" style="sketch=0;outlineConnect=0;fontColor=#FFFFFF;gradientColor=none;fillColor=#ED7100;strokeColor=none;dashed=0;verticalLabelPosition=bottom;verticalAlign=top;align=center;html=1;fontSize=12;fontStyle=0;aspect=fixed;pointerEvents=1;shape=mxgraph.aws4.container_registry_image;" vertex="1" parent="7026571954dc6520-1">
          <mxGeometry x="201" y="2720" width="128" height="128" as="geometry" />
        </mxCell>
        <mxCell id="Q1Ss78tnG0cNNUvzTSzG-333" value="" style="sketch=0;outlineConnect=0;fontColor=#FFFFFF;gradientColor=none;fillColor=#ED7100;strokeColor=none;dashed=0;verticalLabelPosition=bottom;verticalAlign=top;align=center;html=1;fontSize=12;fontStyle=0;aspect=fixed;pointerEvents=1;shape=mxgraph.aws4.container_registry_image;" vertex="1" parent="7026571954dc6520-1">
          <mxGeometry x="470" y="2720" width="128" height="128" as="geometry" />
        </mxCell>
        <mxCell id="Q1Ss78tnG0cNNUvzTSzG-334" value="" style="sketch=0;outlineConnect=0;fontColor=#FFFFFF;gradientColor=none;fillColor=#ED7100;strokeColor=none;dashed=0;verticalLabelPosition=bottom;verticalAlign=top;align=center;html=1;fontSize=12;fontStyle=0;aspect=fixed;pointerEvents=1;shape=mxgraph.aws4.container_registry_image;" vertex="1" parent="7026571954dc6520-1">
          <mxGeometry x="740" y="2720" width="128" height="128" as="geometry" />
        </mxCell>
        <mxCell id="Q1Ss78tnG0cNNUvzTSzG-335" value="LinkedIn" style="text;html=1;strokeColor=none;fillColor=none;align=center;verticalAlign=middle;whiteSpace=wrap;rounded=0;fontSize=21;fontColor=#FFFFFF;" vertex="1" parent="7026571954dc6520-1">
          <mxGeometry x="212.5" y="2680" width="105" height="30" as="geometry" />
        </mxCell>
        <mxCell id="Q1Ss78tnG0cNNUvzTSzG-336" value="GitHub" style="text;html=1;strokeColor=none;fillColor=none;align=center;verticalAlign=middle;whiteSpace=wrap;rounded=0;fontSize=21;fontColor=#FFFFFF;" vertex="1" parent="7026571954dc6520-1">
          <mxGeometry x="477.5" y="2675" width="105" height="30" as="geometry" />
        </mxCell>
        <mxCell id="Q1Ss78tnG0cNNUvzTSzG-402" value="Resume" style="text;html=1;strokeColor=none;fillColor=none;align=center;verticalAlign=middle;whiteSpace=wrap;rounded=0;fontSize=21;fontColor=#FFFFFF;" vertex="1" parent="7026571954dc6520-1">
          <mxGeometry x="751.5" y="2675" width="105" height="30" as="geometry" />
        </mxCell>
        <mxCell id="Q1Ss78tnG0cNNUvzTSzG-403" value="" style="rounded=0;whiteSpace=wrap;html=1;fontColor=#FFFFFF;fillStyle=cross-hatch;fillColor=#FFFFFF;" vertex="1" parent="7026571954dc6520-1">
          <mxGeometry y="2930" width="1050" height="60" as="geometry" />
        </mxCell>
        <mxCell id="Q1Ss78tnG0cNNUvzTSzG-404" value="Copyright @ 2023 Kristopher Scheuer" style="text;html=1;strokeColor=none;fillColor=none;align=center;verticalAlign=middle;whiteSpace=wrap;rounded=0;fontColor=#FFFFFF;" vertex="1" parent="7026571954dc6520-1">
          <mxGeometry x="815" y="2945" width="215" height="30" as="geometry" />
        </mxCell>
        <mxCell id="Q1Ss78tnG0cNNUvzTSzG-405" value="" style="rounded=0;whiteSpace=wrap;html=1;fillColor=#99CCFF;" vertex="1" parent="7026571954dc6520-1">
          <mxGeometry y="880" width="1050" height="10" as="geometry" />
        </mxCell>
        <mxCell id="Q1Ss78tnG0cNNUvzTSzG-406" value="" style="rounded=0;whiteSpace=wrap;html=1;fillColor=#99CCFF;fillStyle=cross-hatch;strokeColor=#FFFFFF;" vertex="1" parent="7026571954dc6520-1">
          <mxGeometry y="1150" width="1050" height="60" as="geometry" />
        </mxCell>
        <mxCell id="Q1Ss78tnG0cNNUvzTSzG-408" value="" style="rounded=0;whiteSpace=wrap;html=1;fillColor=#99CCFF;" vertex="1" parent="7026571954dc6520-1">
          <mxGeometry y="1470" width="1050" height="10" as="geometry" />
        </mxCell>
        <mxCell id="Q1Ss78tnG0cNNUvzTSzG-409" value="" style="rounded=0;whiteSpace=wrap;html=1;fillColor=#99CCFF;fillStyle=cross-hatch;strokeColor=#FFFFFF;" vertex="1" parent="7026571954dc6520-1">
          <mxGeometry y="1760" width="1050" height="60" as="geometry" />
        </mxCell>
        <mxCell id="Q1Ss78tnG0cNNUvzTSzG-410" value="" style="rounded=0;whiteSpace=wrap;html=1;fillColor=#99CCFF;fillStyle=cross-hatch;strokeColor=#FFFFFF;" vertex="1" parent="7026571954dc6520-1">
          <mxGeometry x="-5" y="2330" width="1050" height="60" as="geometry" />
        </mxCell>
        <mxCell id="7026571954dc6520-4" value="Website Name" style="text;html=1;points=[];align=left;verticalAlign=top;spacingTop=-4;fontSize=30;fontFamily=Verdana" parent="1" vertex="1">
          <mxGeometry x="1170" y="180" width="340" height="50" as="geometry" />
        </mxCell>
        <mxCell id="7026571954dc6520-6" value="Section 1" style="text;html=1;points=[];align=left;verticalAlign=top;spacingTop=-4;fontSize=15;fontFamily=Verdana" parent="1" vertex="1">
          <mxGeometry x="1680" y="180" width="170" height="30" as="geometry" />
        </mxCell>
        <mxCell id="7026571954dc6520-7" value="Some default text to fill some space, and&amp;nbsp;&lt;span&gt;something more so there is more text&lt;/span&gt;" style="text;html=1;points=[];align=left;verticalAlign=top;spacingTop=-4;fontSize=12;fontFamily=Verdana;whiteSpace=wrap;" parent="1" vertex="1">
          <mxGeometry x="1680" y="210" width="240" height="40" as="geometry" />
        </mxCell>
        <mxCell id="7026571954dc6520-8" value="Section 2" style="text;html=1;points=[];align=left;verticalAlign=top;spacingTop=-4;fontSize=15;fontFamily=Verdana" parent="1" vertex="1">
          <mxGeometry x="1680" y="270" width="170" height="30" as="geometry" />
        </mxCell>
        <mxCell id="7026571954dc6520-9" value="Some default text to fill some space, and&amp;nbsp;&lt;span&gt;something more so there is more text&lt;/span&gt;" style="text;html=1;points=[];align=left;verticalAlign=top;spacingTop=-4;fontSize=12;fontFamily=Verdana;whiteSpace=wrap;" parent="1" vertex="1">
          <mxGeometry x="1680" y="300" width="240" height="40" as="geometry" />
        </mxCell>
        <mxCell id="7026571954dc6520-10" value="Section 1" style="text;html=1;points=[];align=left;verticalAlign=top;spacingTop=-4;fontSize=15;fontFamily=Verdana" parent="1" vertex="1">
          <mxGeometry x="1940" y="180" width="170" height="30" as="geometry" />
        </mxCell>
        <mxCell id="7026571954dc6520-11" value="Some default text to fill some space, and&amp;nbsp;&lt;span&gt;something more so there is more text&lt;/span&gt;" style="text;html=1;points=[];align=left;verticalAlign=top;spacingTop=-4;fontSize=12;fontFamily=Verdana;whiteSpace=wrap;" parent="1" vertex="1">
          <mxGeometry x="1940" y="210" width="240" height="40" as="geometry" />
        </mxCell>
        <mxCell id="7026571954dc6520-12" value="Search" style="text;html=1;points=[];align=left;verticalAlign=top;spacingTop=-4;fontSize=15;fontFamily=Verdana" parent="1" vertex="1">
          <mxGeometry x="1940" y="270" width="170" height="30" as="geometry" />
        </mxCell>
        <mxCell id="7026571954dc6520-14" value="Search" style="strokeWidth=1;shadow=0;dashed=0;align=center;html=1;shape=mxgraph.mockup.forms.searchBox;strokeColor=#999999;mainText=;strokeColor2=#008cff;fontColor=#666666;fontSize=17;align=left;spacingLeft=3;rounded=0;labelBackgroundColor=none;" parent="1" vertex="1">
          <mxGeometry x="1940" y="300" width="220" height="30" as="geometry" />
        </mxCell>
        <mxCell id="7026571954dc6520-15" value="" style="verticalLabelPosition=bottom;shadow=0;dashed=0;align=center;html=1;verticalAlign=top;strokeWidth=1;shape=mxgraph.mockup.markup.line;strokeColor=#999999;rounded=0;labelBackgroundColor=none;fillColor=#ffffff;fontFamily=Verdana;fontSize=12;fontColor=#000000;" parent="1" vertex="1">
          <mxGeometry x="1140" y="350" width="1050" height="20" as="geometry" />
        </mxCell>
        <mxCell id="7026571954dc6520-16" value="Title 1" style="text;html=1;points=[];align=left;verticalAlign=top;spacingTop=-4;fontSize=15;fontFamily=Verdana" parent="1" vertex="1">
          <mxGeometry x="1160" y="370" width="170" height="30" as="geometry" />
        </mxCell>
        <mxCell id="7026571954dc6520-17" value="Lorem ipsum dolor sit amet, consectetur adipisicing elit, sed do eiusmod tempor incididunt ut labore et dolore magna aliqua. Ut enim ad minim veniam, quis nostrud exercitation ullamco laboris nisi ut aliquip ex ea commodo consequat. Duis aute irure dolor in reprehenderit in voluptate velit esse cillum dolore eu fugiat nulla pariatur. Excepteur sint occaecat cupidatat non proident, sunt in culpa qui officia deserunt mollit anim id est laborum.&#xa;Sed ut perspiciatis unde omnis iste natus error sit voluptatem accusantium doloremque laudantium, totam rem aperiam, eaque ipsa quae ab illo inventore veritatis et quasi architecto beatae vitae dicta sunt explicabo. Nemo enim ipsam voluptatem quia voluptas sit aspernatur aut odit aut fugit, sed quia consequuntur magni dolores eos qui ratione voluptatem sequi nesciunt. Neque porro quisquam est, qui dolorem ipsum quia dolor sit amet, consectetur, adipisci velit, sed quia non numquam eius modi tempora incidunt ut labore et dolore magnam aliquam quaerat voluptatem. Ut enim ad minima veniam, quis nostrum exercitationem ullam corporis suscipit laboriosam, nisi ut aliquid ex ea commodi consequatur? Quis autem vel eum iure reprehenderit qui in ea voluptate velit esse quam nihil molestiae consequatur, vel illum qui dolorem eum fugiat quo voluptas nulla pariatur?" style="text;spacingTop=-5;whiteSpace=wrap;html=1;align=left;fontSize=12;fontFamily=Helvetica;fillColor=none;strokeColor=none;rounded=0;shadow=1;labelBackgroundColor=none;" parent="1" vertex="1">
          <mxGeometry x="1160" y="410" width="570" height="240" as="geometry" />
        </mxCell>
        <mxCell id="7026571954dc6520-18" value="Button 1" style="strokeWidth=1;shadow=0;dashed=0;align=center;html=1;shape=mxgraph.mockup.buttons.button;strokeColor=#666666;mainText=;buttonStyle=round;fontSize=17;fontStyle=0;fillColor=none;whiteSpace=wrap;rounded=0;labelBackgroundColor=none;" parent="1" vertex="1">
          <mxGeometry x="1930" y="400" width="190" height="30" as="geometry" />
        </mxCell>
        <mxCell id="7026571954dc6520-19" value="Button 2" style="strokeWidth=1;shadow=0;dashed=0;align=center;html=1;shape=mxgraph.mockup.buttons.button;strokeColor=#666666;mainText=;buttonStyle=round;fontSize=17;fontStyle=0;fillColor=none;whiteSpace=wrap;rounded=0;labelBackgroundColor=none;" parent="1" vertex="1">
          <mxGeometry x="1930" y="445" width="190" height="30" as="geometry" />
        </mxCell>
        <mxCell id="7026571954dc6520-20" value="Some default text to fill some space, and&amp;nbsp;&lt;span&gt;something more so there is more text&lt;/span&gt;" style="text;html=1;points=[];align=left;verticalAlign=top;spacingTop=-4;fontSize=12;fontFamily=Verdana;whiteSpace=wrap;" parent="1" vertex="1">
          <mxGeometry x="1930" y="490" width="240" height="40" as="geometry" />
        </mxCell>
        <mxCell id="7026571954dc6520-21" value="" style="verticalLabelPosition=bottom;shadow=0;dashed=0;align=center;html=1;verticalAlign=top;strokeWidth=1;shape=mxgraph.mockup.markup.line;strokeColor=#999999;rounded=0;labelBackgroundColor=none;fillColor=#ffffff;fontFamily=Verdana;fontSize=12;fontColor=#000000;" parent="1" vertex="1">
          <mxGeometry x="1140" y="620" width="1050" height="20" as="geometry" />
        </mxCell>
        <mxCell id="7026571954dc6520-22" value="" style="verticalLabelPosition=bottom;shadow=0;dashed=0;align=center;html=1;verticalAlign=top;strokeWidth=1;shape=mxgraph.mockup.graphics.simpleIcon;strokeColor=#999999;fillColor=#ffffff;rounded=0;labelBackgroundColor=none;fontFamily=Verdana;fontSize=12;fontColor=#000000;" parent="1" vertex="1">
          <mxGeometry x="1155" y="650" width="200" height="200" as="geometry" />
        </mxCell>
        <mxCell id="7026571954dc6520-31" value="Title 2" style="text;html=1;points=[];align=left;verticalAlign=top;spacingTop=-4;fontSize=15;fontFamily=Verdana" parent="1" vertex="1">
          <mxGeometry x="1420" y="650" width="170" height="30" as="geometry" />
        </mxCell>
        <mxCell id="7026571954dc6520-32" value="Title 3" style="text;html=1;points=[];align=left;verticalAlign=top;spacingTop=-4;fontSize=15;fontFamily=Verdana" parent="1" vertex="1">
          <mxGeometry x="1920" y="650" width="170" height="30" as="geometry" />
        </mxCell>
        <mxCell id="7026571954dc6520-33" value="&lt;div style=&quot;text-align: justify&quot;&gt;&lt;span&gt;Some default text to fill some space, and&amp;nbsp;&lt;/span&gt;&lt;span&gt;something more so there is more text&lt;/span&gt;&lt;/div&gt;&lt;div style=&quot;text-align: justify&quot;&gt;&lt;hr id=&quot;null&quot; style=&quot;text-align: justify&quot;&gt;&lt;span&gt;&lt;div style=&quot;text-align: justify&quot;&gt;&lt;span&gt;Some default text to fill some space, and&amp;nbsp;&lt;/span&gt;&lt;span&gt;something more so there is more text&lt;/span&gt;&lt;/div&gt;&lt;/span&gt;&lt;/div&gt;&lt;hr id=&quot;null&quot; style=&quot;text-align: justify&quot;&gt;&lt;span&gt;&lt;div style=&quot;text-align: justify&quot;&gt;&lt;span&gt;Some default text to fill some space, and&amp;nbsp;&lt;/span&gt;&lt;span&gt;something more so there is more text&lt;/span&gt;&lt;/div&gt;&lt;/span&gt;&lt;hr id=&quot;null&quot; style=&quot;text-align: justify&quot;&gt;&lt;span&gt;&lt;div style=&quot;text-align: justify&quot;&gt;&lt;span&gt;Some default text to fill some space, and&amp;nbsp;&lt;/span&gt;&lt;span&gt;something more so there is more text&lt;/span&gt;&lt;/div&gt;&lt;/span&gt;&lt;hr id=&quot;null&quot; style=&quot;text-align: left&quot;&gt;" style="whiteSpace=wrap;html=1;rounded=0;shadow=0;labelBackgroundColor=none;strokeWidth=1;fontFamily=Verdana;fontSize=12;align=center;verticalAlign=top;" parent="1" vertex="1">
          <mxGeometry x="1920" y="680" width="260" height="170" as="geometry" />
        </mxCell>
        <mxCell id="7026571954dc6520-34" value="Some default text to fill some space, and&amp;nbsp;&lt;span&gt;something more so there is more text&lt;/span&gt;" style="text;html=1;points=[];align=left;verticalAlign=top;spacingTop=-4;fontSize=12;fontFamily=Verdana;whiteSpace=wrap;" parent="1" vertex="1">
          <mxGeometry x="1410" y="690" width="470" height="40" as="geometry" />
        </mxCell>
        <mxCell id="7026571954dc6520-36" value="Lorem ipsum dolor sit amet, consectetur adipisicing elit, sed do eiusmod tempor incididunt ut labore et dolore magna aliqua. Ut enim ad minim veniam, quis nostrud exercitation ullamco laboris nisi ut aliquip ex ea commodo consequat. Duis aute irure dolor in reprehenderit in voluptate velit esse cillum dolore eu fugiat nulla pariatur. Excepteur sint occaecat cupidatat non proident, sunt in culpa qui officia deserunt mollit anim id est laborum.&lt;br&gt;Sed ut perspiciatis unde omnis iste natus error sit voluptatem accusantium doloremque laudantium, totam rem aperiam, eaque ipsa quae ab illo inventore veritatis et quasi architecto beatae vitae dicta sunt explicabo.&amp;nbsp;" style="text;spacingTop=-5;whiteSpace=wrap;html=1;align=left;fontSize=12;fontFamily=Helvetica;fillColor=none;strokeColor=none;rounded=0;shadow=1;labelBackgroundColor=none;" parent="1" vertex="1">
          <mxGeometry x="1410" y="725" width="490" height="125" as="geometry" />
        </mxCell>
      </root>
    </mxGraphModel>
  </diagram>
</mxfile>
